<svg xmlns="http://www.w3.org/2000/svg" xmlns:xlink="http://www.w3.org/1999/xlink" width="500" zoomAndPan="magnify" viewBox="0 0 375 374.999991" height="500" preserveAspectRatio="xMidYMid meet" version="1.0"><defs><g/><clipPath id="13b9af3cd0"><path d="M 14.042969 91.941406 L 361 91.941406 L 361 283.191406 L 14.042969 283.191406 Z M 14.042969 91.941406 " clip-rule="nonzero"/></clipPath></defs><rect x="-37.5" width="450" fill="#ffffff" y="-37.499999" height="449.999989" fill-opacity="1"/><rect x="-37.5" width="450" fill="#8a2c2e" y="-37.499999" height="449.999989" fill-opacity="1"/><g clip-path="url(#13b9af3cd0)"><path fill="#ffad00" d="M 328.0625 91.941406 L 46.335938 91.941406 C 46.335938 105.863281 32.480469 116.929688 14.847656 116.929688 L 14.847656 117.328125 L 14.570312 117.328125 C 14.5625 118.738281 14.542969 119.664062 14.558594 120.90625 C 14.5625 121.050781 14.714844 121.207031 14.855469 121.242188 C 18.203125 122.078125 19.742188 124.101562 20.570312 126.597656 C 21.285156 128.738281 21.164062 130.863281 20.203125 132.949219 C 19.203125 135.113281 17.554688 136.78125 14.546875 137.425781 C 14.546875 138.378906 14.53125 139.324219 14.5625 140.277344 C 14.566406 140.414062 14.757812 140.621094 14.917969 140.664062 C 18.269531 141.503906 19.828125 143.582031 20.578125 146.085938 C 21.53125 149.257812 21.015625 152.273438 18.417969 154.921875 C 17.546875 155.8125 16.410156 156.414062 15.0625 156.773438 C 14.847656 156.832031 14.578125 157.082031 14.566406 157.25 C 14.515625 158.058594 14.527344 158.867188 14.5625 159.679688 C 14.566406 159.832031 14.75 160.078125 14.914062 160.117188 C 17.757812 160.808594 19.347656 162.484375 20.21875 164.597656 C 21.644531 168.046875 21.277344 171.355469 18.46875 174.339844 C 17.605469 175.257812 16.457031 175.890625 15.058594 176.230469 C 14.863281 176.277344 14.574219 176.460938 14.570312 176.589844 C 14.527344 177.5625 14.546875 178.535156 14.546875 179.507812 C 17.546875 180.128906 19.199219 181.800781 20.175781 183.9375 C 21.34375 186.492188 21.453125 189.070312 20.199219 191.605469 C 19.1875 193.65625 17.667969 195.214844 14.847656 195.8125 L 14.847656 198.914062 C 15.550781 199.15625 16.101562 199.347656 16.726562 199.660156 C 18.882812 200.738281 19.972656 202.386719 20.589844 204.289062 C 21.464844 206.980469 21.300781 209.601562 19.640625 212.078125 C 18.582031 213.664062 16.960938 214.824219 14.847656 215.265625 L 14.847656 218.40625 C 19.078125 219.625 20.71875 222.457031 21.074219 225.832031 C 21.351562 228.460938 20.515625 230.910156 18.300781 232.96875 C 17.449219 233.761719 16.375 234.335938 15.113281 234.621094 C 14.710938 234.710938 14.542969 234.828125 14.550781 235.164062 C 14.578125 235.949219 14.535156 236.742188 14.566406 237.527344 C 14.574219 237.691406 14.730469 237.953125 14.886719 237.988281 C 17.589844 238.621094 19.175781 240.171875 20.074219 242.160156 C 21.695312 245.742188 21.488281 249.179688 18.511719 252.292969 C 17.570312 253.277344 16.257812 253.902344 14.847656 254.199219 L 14.847656 258.371094 C 32.476562 258.371094 46.335938 269.652344 46.335938 283.050781 L 328.0625 283.050781 C 328.0625 269.652344 342.058594 258.371094 360.394531 258.371094 L 360.394531 254.25 C 356.164062 253.265625 354.421875 250.78125 353.851562 247.742188 C 353.269531 244.640625 353.796875 241.714844 356.695312 239.390625 C 357.4375 238.800781 358.425781 238.445312 359.386719 238.054688 C 359.734375 237.914062 359.898438 237.835938 359.886719 237.5 C 359.859375 236.714844 359.878906 235.921875 359.84375 235.136719 C 359.835938 234.976562 359.65625 234.71875 359.496094 234.679688 C 356.667969 234.019531 355.0625 232.367188 354.183594 230.285156 C 352.714844 226.800781 353.058594 223.449219 355.921875 220.429688 C 356.785156 219.515625 357.9375 218.882812 359.339844 218.550781 C 359.542969 218.503906 359.808594 218.273438 359.820312 218.125 C 359.863281 217.195312 359.839844 216.257812 359.839844 215.285156 C 357.710938 214.890625 356.210938 213.855469 355.117188 212.417969 C 353.726562 210.582031 353.253906 208.566406 353.394531 206.449219 C 353.488281 205.085938 354.167969 203.785156 354.925781 202.554688 C 356.023438 200.785156 357.574219 199.460938 360.394531 198.980469 L 360.394531 195.855469 C 356.164062 194.777344 354.324219 192.164062 353.769531 189.007812 C 353.414062 186.980469 353.617188 184.992188 354.757812 183.125 C 355.839844 181.351562 357.34375 180.007812 359.910156 179.507812 C 359.910156 178.535156 359.886719 177.5625 359.859375 176.589844 C 359.855469 176.472656 359.640625 176.300781 359.488281 176.261719 C 356.476562 175.546875 354.890625 173.742188 354.035156 171.511719 C 352.820312 168.363281 353.152344 165.316406 355.460938 162.503906 C 356.40625 161.359375 357.699219 160.558594 359.355469 160.128906 C 359.5625 160.078125 359.808594 159.8125 359.820312 159.640625 C 359.871094 158.851562 359.863281 158.058594 359.828125 157.273438 C 359.820312 157.109375 359.65625 156.847656 359.496094 156.808594 C 356.269531 156.015625 354.683594 154.054688 353.878906 151.644531 C 352.839844 148.535156 353.246094 145.550781 355.625 142.851562 C 356.550781 141.804688 357.773438 141.058594 359.335938 140.675781 C 359.539062 140.628906 359.8125 140.402344 359.820312 140.25 C 359.863281 139.320312 359.84375 138.386719 359.84375 137.410156 C 357.6875 137.003906 356.167969 135.953125 355.078125 134.492188 C 353.71875 132.664062 353.234375 130.667969 353.402344 128.570312 C 353.585938 126.265625 354.675781 124.136719 356.871094 122.535156 C 357.769531 121.882812 358.988281 121.460938 360.398438 120.847656 L 360.398438 116.929688 C 342.0625 116.929688 328.0625 105.863281 328.0625 91.941406 Z M 328.0625 91.941406 " fill-opacity="1" fill-rule="nonzero"/></g><path fill="#ffad00" d="M 115.5 182.816406 L 125.574219 136.207031 L 133.910156 136.207031 L 143.957031 182.816406 L 134.664062 182.816406 L 132.746094 172.847656 L 126.660156 172.847656 L 124.847656 182.816406 Z M 127.308594 167.046875 L 132.125 167.046875 L 129.769531 149.75 Z M 148.289062 182.816406 L 148.289062 136.207031 L 158.023438 136.207031 C 161.132812 136.207031 163.691406 136.488281 165.699219 137.046875 C 167.710938 137.609375 169.289062 138.53125 170.441406 139.820312 C 171.585938 141.105469 172.382812 142.644531 172.820312 144.441406 C 173.261719 146.234375 173.480469 148.523438 173.480469 151.300781 L 173.480469 166.578125 C 173.480469 168.234375 173.429688 169.683594 173.324219 170.914062 C 173.222656 172.148438 173.027344 173.359375 172.742188 174.542969 C 172.457031 175.722656 172.070312 176.726562 171.578125 177.542969 C 171.085938 178.363281 170.453125 179.128906 169.675781 179.835938 C 168.898438 180.542969 167.960938 181.105469 166.867188 181.519531 C 165.769531 181.933594 164.484375 182.253906 163.007812 182.476562 C 161.53125 182.703125 159.835938 182.8125 157.921875 182.8125 L 148.289062 182.8125 Z M 158.074219 176.210938 C 158.972656 176.210938 159.679688 176.199219 160.199219 176.171875 C 160.714844 176.148438 161.234375 176.082031 161.75 175.980469 C 162.269531 175.875 162.648438 175.734375 162.890625 175.550781 C 163.132812 175.371094 163.355469 175.109375 163.566406 174.761719 C 163.769531 174.417969 163.90625 174.007812 163.964844 173.53125 C 164.027344 173.058594 164.054688 172.464844 164.054688 171.757812 L 164.054688 146.667969 C 164.054688 145.132812 163.597656 144.113281 162.683594 143.613281 C 161.769531 143.109375 160.234375 142.851562 158.074219 142.835938 Z M 179.753906 182.816406 L 179.753906 136.207031 L 191.042969 136.207031 L 196.015625 167.277344 L 201.375 136.207031 L 212.277344 136.207031 L 212.277344 182.816406 L 205.335938 182.816406 L 205.128906 150.035156 C 204.613281 153.398438 203.703125 158.863281 202.410156 166.425781 C 201.117188 173.984375 200.210938 179.449219 199.691406 182.816406 L 192.648438 182.816406 L 186.925781 149.828125 L 186.71875 182.816406 Z M 219.140625 182.816406 L 219.140625 136.207031 L 228.566406 136.207031 L 228.566406 182.816406 Z M 239.863281 182.816406 L 239.863281 143.25 L 233.027344 143.25 L 233.027344 136.207031 L 255.996094 136.207031 L 255.996094 143.25 L 249.289062 143.25 L 249.289062 182.816406 Z M 144.261719 231.121094 L 144.261719 215.457031 C 144.261719 204.441406 148.800781 198.9375 157.878906 198.9375 C 166.976562 198.9375 171.527344 204.441406 171.527344 215.457031 L 171.527344 230.890625 C 171.527344 232.753906 171.386719 234.476562 171.113281 236.054688 C 170.835938 237.632812 170.363281 239.128906 169.699219 240.546875 C 169.035156 241.960938 168.191406 243.167969 167.164062 244.160156 C 166.136719 245.152344 164.835938 245.933594 163.265625 246.5 C 161.695312 247.070312 159.898438 247.355469 157.878906 247.355469 C 155.878906 247.355469 154.089844 247.074219 152.519531 246.515625 C 150.949219 245.953125 149.65625 245.195312 148.636719 244.238281 C 147.617188 243.28125 146.773438 242.105469 146.109375 240.714844 C 145.445312 239.324219 144.972656 237.847656 144.6875 236.277344 C 144.402344 234.703125 144.261719 232.988281 144.261719 231.121094 Z M 162.101562 233.246094 L 162.101562 213.101562 C 162.101562 208.507812 160.695312 206.210938 157.878906 206.210938 C 157.035156 206.210938 156.316406 206.425781 155.730469 206.847656 C 155.144531 207.269531 154.710938 207.847656 154.4375 208.582031 C 154.160156 209.316406 153.964844 210.039062 153.855469 210.757812 C 153.742188 211.472656 153.6875 212.253906 153.6875 213.101562 L 153.6875 233.246094 C 153.6875 237.820312 155.082031 240.105469 157.878906 240.105469 C 160.695312 240.109375 162.101562 237.820312 162.101562 233.246094 Z M 177.796875 246.449219 L 177.796875 199.816406 L 184.582031 199.816406 L 194.808594 224.207031 L 194.808594 199.816406 L 202.628906 199.816406 L 202.628906 246.449219 L 196.105469 246.449219 L 185.902344 220.582031 L 185.902344 246.449219 Z M 209.496094 246.449219 L 209.496094 199.84375 L 228.941406 199.84375 L 228.941406 206.316406 L 218.921875 206.316406 L 218.921875 219.003906 L 226.015625 219.003906 L 226.015625 225.632812 L 218.921875 225.632812 L 218.921875 239.976562 L 228.941406 239.976562 L 228.941406 246.449219 Z M 314.320312 147.820312 C 315.226562 146.785156 315.996094 145.679688 315.996094 144.242188 C 315.996094 140.195312 310.839844 139.925781 307.863281 139.828125 C 309.003906 141.164062 309.671875 142.503906 309.671875 144.277344 C 309.671875 148.492188 306.191406 150.03125 302.511719 150.03125 C 298.53125 150.03125 295.183594 147.890625 295.183594 143.605469 C 295.183594 137.851562 302.144531 137.484375 306.394531 137.484375 C 310.941406 137.484375 318.101562 138.054688 318.101562 144.140625 C 318.101562 145.980469 317.398438 147.753906 316.160156 149.09375 Z M 297.292969 143.773438 C 297.292969 146.515625 299.703125 147.6875 302.410156 147.6875 C 304.953125 147.6875 307.5625 146.917969 307.5625 143.941406 C 307.5625 142.335938 306.460938 140.964844 305.390625 139.828125 C 298.398438 139.859375 297.292969 141.734375 297.292969 143.773438 Z M 306.628906 167.527344 C 303.046875 167.527344 295.183594 168.128906 295.183594 161.304688 C 295.183594 154.480469 302.78125 155.082031 306.628906 155.082031 C 311.878906 155.082031 318.101562 154.816406 318.101562 161.304688 C 318.101562 168.398438 309.136719 167.527344 306.628906 167.527344 Z M 306.628906 157.421875 C 297.863281 157.421875 297.292969 159.03125 297.292969 161.304688 C 297.292969 163.878906 298.332031 165.183594 306.628906 165.183594 C 315.257812 165.183594 315.996094 163.679688 315.996094 161.304688 C 315.996094 157.089844 311.078125 157.421875 306.628906 157.421875 Z M 301.074219 172.511719 L 318.238281 175.824219 L 317.636719 178.066406 L 303.082031 175.1875 L 303.082031 181.242188 L 314.421875 181.242188 L 314.421875 183.484375 L 303.082031 183.484375 L 303.082031 185.257812 L 301.074219 185.257812 L 301.074219 183.484375 L 295.488281 183.484375 L 295.488281 181.242188 L 301.074219 181.242188 Z M 315.796875 200.414062 L 315.796875 191.214844 L 317.800781 191.214844 L 317.800781 203.660156 L 295.050781 193.519531 L 295.957031 191.511719 Z M 314.324219 218.078125 C 315.226562 217.042969 315.996094 215.9375 315.996094 214.5 C 315.996094 210.449219 310.84375 210.183594 307.867188 210.082031 C 309.003906 211.417969 309.671875 212.757812 309.671875 214.53125 C 309.671875 218.75 306.191406 220.285156 302.511719 220.285156 C 298.53125 220.285156 295.1875 218.144531 295.1875 213.863281 C 295.1875 208.109375 302.144531 207.738281 306.394531 207.738281 C 310.945312 207.738281 318.101562 208.308594 318.101562 214.398438 C 318.101562 216.238281 317.398438 218.011719 316.164062 219.347656 Z M 297.292969 214.03125 C 297.292969 216.773438 299.703125 217.945312 302.414062 217.945312 C 304.953125 217.945312 307.566406 217.175781 307.566406 214.199219 C 307.566406 212.589844 306.460938 211.21875 305.390625 210.082031 C 298.398438 210.117188 297.292969 211.988281 297.292969 214.03125 Z M 306.628906 237.78125 C 303.046875 237.78125 295.1875 238.386719 295.1875 231.5625 C 295.1875 224.734375 302.78125 225.335938 306.628906 225.335938 C 311.878906 225.335938 318.101562 225.070312 318.101562 231.5625 C 318.101562 238.652344 309.136719 237.78125 306.628906 237.78125 Z M 306.628906 227.679688 C 297.863281 227.679688 297.292969 229.285156 297.292969 231.558594 C 297.292969 234.136719 298.332031 235.441406 306.628906 235.441406 C 315.257812 235.441406 315.996094 233.933594 315.996094 231.558594 C 315.996094 227.34375 311.078125 227.679688 306.628906 227.679688 Z M 75.929688 147.820312 C 76.832031 146.785156 77.601562 145.679688 77.601562 144.242188 C 77.601562 140.195312 72.449219 139.925781 69.472656 139.828125 C 70.609375 141.164062 71.277344 142.503906 71.277344 144.277344 C 71.277344 148.492188 67.796875 150.03125 64.117188 150.03125 C 60.136719 150.03125 56.792969 147.890625 56.792969 143.605469 C 56.792969 137.851562 63.75 137.484375 68 137.484375 C 72.550781 137.484375 79.707031 138.054688 79.707031 144.140625 C 79.707031 145.980469 79.003906 147.753906 77.769531 149.09375 Z M 58.898438 143.773438 C 58.898438 146.515625 61.308594 147.6875 64.015625 147.6875 C 66.558594 147.6875 69.167969 146.917969 69.167969 143.941406 C 69.167969 142.335938 68.066406 140.964844 66.996094 139.828125 C 60.003906 139.859375 58.898438 141.734375 58.898438 143.773438 Z M 68.234375 167.527344 C 64.652344 167.527344 56.792969 168.128906 56.792969 161.304688 C 56.792969 154.480469 64.386719 155.082031 68.234375 155.082031 C 73.484375 155.082031 79.707031 154.816406 79.707031 161.304688 C 79.707031 168.398438 70.742188 167.527344 68.234375 167.527344 Z M 68.234375 157.421875 C 59.46875 157.421875 58.898438 159.03125 58.898438 161.304688 C 58.898438 163.878906 59.9375 165.183594 68.234375 165.183594 C 76.863281 165.183594 77.601562 163.679688 77.601562 161.304688 C 77.601562 157.089844 72.683594 157.421875 68.234375 157.421875 Z M 62.679688 172.511719 L 79.84375 175.824219 L 79.242188 178.066406 L 64.6875 175.1875 L 64.6875 181.242188 L 76.027344 181.242188 L 76.027344 183.484375 L 64.6875 183.484375 L 64.6875 185.257812 L 62.679688 185.257812 L 62.679688 183.484375 L 57.09375 183.484375 L 57.09375 181.242188 L 62.679688 181.242188 Z M 77.402344 200.414062 L 77.402344 191.214844 L 79.40625 191.214844 L 79.40625 203.660156 L 56.65625 193.519531 L 57.5625 191.511719 Z M 75.929688 218.078125 C 76.832031 217.042969 77.601562 215.9375 77.601562 214.5 C 77.601562 210.449219 72.449219 210.183594 69.472656 210.082031 C 70.609375 211.417969 71.277344 212.757812 71.277344 214.53125 C 71.277344 218.75 67.800781 220.285156 64.121094 220.285156 C 60.136719 220.285156 56.792969 218.144531 56.792969 213.863281 C 56.792969 208.109375 63.75 207.738281 68 207.738281 C 72.550781 207.738281 79.710938 208.308594 79.710938 214.398438 C 79.710938 216.238281 79.007812 218.011719 77.769531 219.347656 Z M 58.898438 214.03125 C 58.898438 216.773438 61.308594 217.945312 64.019531 217.945312 C 66.5625 217.945312 69.171875 217.175781 69.171875 214.199219 C 69.171875 212.589844 68.066406 211.21875 66.996094 210.082031 C 60.003906 210.117188 58.898438 211.988281 58.898438 214.03125 Z M 68.234375 237.78125 C 64.652344 237.78125 56.792969 238.386719 56.792969 231.5625 C 56.792969 224.734375 64.386719 225.335938 68.234375 225.335938 C 73.488281 225.335938 79.710938 225.070312 79.710938 231.5625 C 79.710938 238.652344 70.742188 237.78125 68.234375 237.78125 Z M 68.234375 227.679688 C 59.46875 227.679688 58.898438 229.285156 58.898438 231.558594 C 58.898438 234.136719 59.9375 235.441406 68.234375 235.441406 C 76.867188 235.441406 77.601562 233.933594 77.601562 231.558594 C 77.601562 227.34375 72.683594 227.679688 68.234375 227.679688 Z M 319.285156 259.921875 L 52.804688 259.921875 C 48.800781 259.921875 45.539062 256.660156 45.539062 252.65625 L 45.539062 124.832031 C 45.539062 120.824219 48.800781 117.566406 52.804688 117.566406 L 319.28125 117.566406 C 323.289062 117.566406 326.546875 120.824219 326.546875 124.832031 L 326.546875 252.65625 C 326.546875 256.660156 323.289062 259.921875 319.285156 259.921875 Z M 52.804688 119.652344 C 49.949219 119.652344 47.628906 121.976562 47.628906 124.832031 L 47.628906 252.65625 C 47.628906 255.507812 49.949219 257.832031 52.804688 257.832031 L 319.28125 257.832031 C 322.136719 257.832031 324.460938 255.507812 324.460938 252.65625 L 324.460938 124.832031 C 324.460938 121.976562 322.136719 119.652344 319.28125 119.652344 Z M 287.34375 259.921875 L 87.058594 259.921875 L 87.058594 117.566406 L 287.34375 117.566406 Z M 89.144531 257.832031 L 285.257812 257.832031 L 285.257812 119.652344 L 89.144531 119.652344 Z M 103.300781 133.113281 L 98.519531 133.113281 L 102.386719 135.925781 L 100.910156 140.472656 L 104.78125 137.664062 L 108.648438 140.472656 L 107.171875 135.925781 L 111.039062 133.113281 L 106.257812 133.113281 L 104.78125 128.566406 Z M 270.832031 133.113281 L 266.046875 133.113281 L 269.917969 135.925781 L 268.4375 140.472656 L 272.308594 137.664062 L 276.179688 140.472656 L 274.699219 135.925781 L 278.570312 133.113281 L 273.785156 133.113281 L 272.308594 128.566406 Z M 104.78125 249.960938 L 106.257812 245.410156 L 111.039062 245.410156 L 107.171875 242.601562 L 108.648438 238.050781 L 104.78125 240.863281 L 100.910156 238.050781 L 102.386719 242.601562 L 98.519531 245.410156 L 103.300781 245.410156 Z M 272.308594 249.960938 L 273.789062 245.410156 L 278.570312 245.410156 L 274.699219 242.601562 L 276.179688 238.050781 L 272.308594 240.863281 L 268.441406 238.050781 L 269.917969 242.601562 L 266.046875 245.410156 L 270.832031 245.410156 Z M 272.308594 249.960938 " fill-opacity="1" fill-rule="nonzero"/><g fill="#8a2c2e" fill-opacity="1"><g transform="translate(88.655227, 212.147764)"><g><path d="M 16.53125 0 L 3.078125 0 L 3.078125 -49.359375 L 16.53125 -49.359375 Z M 16.53125 0 "/></g></g></g><g fill="#8a2c2e" fill-opacity="1"><g transform="translate(108.260159, 212.147764)"><g><path d="M 33.828125 -30.90625 L 20.375 -30.90625 L 20.375 -38.828125 C 20.375 -39.953125 19.859375 -40.515625 18.828125 -40.515625 L 17.6875 -40.515625 C 16.65625 -40.515625 16.140625 -39.953125 16.140625 -38.828125 L 16.140625 -10.53125 C 16.140625 -9.40625 16.65625 -8.84375 17.6875 -8.84375 L 18.828125 -8.84375 C 19.859375 -8.84375 20.375 -9.40625 20.375 -10.53125 L 20.375 -18.140625 L 33.828125 -18.140625 L 33.828125 -9.53125 C 33.828125 -3.175781 30.0625 0 22.53125 0 L 13.984375 0 C 6.453125 0 2.6875 -3.175781 2.6875 -9.53125 L 2.6875 -39.828125 C 2.6875 -46.179688 6.453125 -49.359375 13.984375 -49.359375 L 22.53125 -49.359375 C 30.0625 -49.359375 33.828125 -46.179688 33.828125 -39.828125 Z M 33.828125 -30.90625 "/></g></g></g><g fill="#8a2c2e" fill-opacity="1"><g transform="translate(144.010326, 212.147764)"><g/></g></g><g fill="#8a2c2e" fill-opacity="1"><g transform="translate(159.386749, 212.147764)"><g><path d="M 1.53125 -18.828125 L 1.53125 -27.671875 L 24.828125 -27.671875 L 24.828125 -18.828125 Z M 1.53125 -18.828125 "/></g></g></g><g fill="#8a2c2e" fill-opacity="1"><g transform="translate(185.7573, 212.147764)"><g/></g></g><g fill="#8a2c2e" fill-opacity="1"><g transform="translate(201.133722, 212.147764)"><g><path d="M 28.21875 -49.359375 L 28.21875 -39.75 L 20.984375 -39.75 L 20.984375 0 L 7.53125 0 L 7.53125 -39.75 L 0.390625 -39.75 L 0.390625 -49.359375 Z M 28.21875 -49.359375 "/></g></g></g><g fill="#8a2c2e" fill-opacity="1"><g transform="translate(229.733863, 212.147764)"><g><path d="M 16.53125 0 L 3.078125 0 L 3.078125 -49.359375 L 16.53125 -49.359375 Z M 16.53125 0 "/></g></g></g><g fill="#8a2c2e" fill-opacity="1"><g transform="translate(249.338794, 212.147764)"><g><path d="M 25.453125 -25.0625 L 36.984375 0 L 21.828125 0 L 18.0625 -13.984375 L 14.296875 0 L 0 0 L 10.6875 -25.0625 L 0.3125 -49.359375 L 15.53125 -49.359375 L 18.0625 -37.046875 L 20.671875 -49.359375 L 35.125 -49.359375 Z M 25.453125 -25.0625 "/></g></g></g></svg>